<?xml version="1.0" encoding="utf-8"?>
<!-- Generator: Adobe Illustrator 19.0.0, SVG Export Plug-In . SVG Version: 6.00 Build 0)  -->
<svg version="1.1" id="Calque_1" xmlns="http://www.w3.org/2000/svg" xmlns:xlink="http://www.w3.org/1999/xlink" x="0px" y="0px"
	 viewBox="0 0 400.8 40.6" style="enable-background:new 0 0 400.8 40.6;" xml:space="preserve">
<style type="text/css">
	.st0{fill:#FFFFFF;}
</style>
<g>
	<path class="st0" d="M36.3,34.3c-3.9,3-8.4,5.8-16.9,5.8c-10.5,0-19.1-7.4-19.1-19.3c0-10.6,7.8-19.1,19.3-19.1
		c8.7,0,13.2,4.1,15.1,6.4L29,14.1c-0.8-1.1-4-4-8.9-4c-6.6,0-10.4,4.6-10.4,10.6c0,6.9,4.5,11.1,10.4,11.1c4.6,0,7.3-1.7,7.9-2.3
		v-3.3h-6.4v-7.6h14.8V34.3z"/>
	<path class="st0" d="M51.7,21.6c2.4,0,4.3,0.6,5.3,1v-1c0-1.7-1.4-3-4.2-3c-2.4,0-4.8,0.7-7,1.7l-3.3-5.9c3-2,6.7-3.4,11.3-3.4
		c9.6,0,12,4.9,12,11.3v17.2H58l-0.5-1.5c-1.4,1.4-3.4,2.2-6.3,2.2c-5.4,0-10.3-3.3-10.3-9.3C41,25.3,45.2,21.6,51.7,21.6z
		 M53.5,33.4c2.1,0,3.7-1,3.7-2.9c0-1.9-1.6-3-3.8-3s-3.7,1.2-3.7,3C49.8,32.4,51.5,33.4,53.5,33.4z"/>
	<path class="st0" d="M87.9,20c-0.4-0.1-0.8-0.1-1.4-0.1c-4.3,0-5.7,3.1-5.7,7.3v12.3H72V11.7h8.6v3.7c1.3-2.7,3.9-4.4,7.3-4.4V20z"
		/>
	<path class="st0" d="M109.1,22.9c0-2.6-1.5-4-3.6-4c-2.4,0-3.8,1.7-3.8,4v16.5h-8.8V11.7h8.6v2.9c1.1-1.6,3.5-3.5,7-3.5
		c8.7,0,9.5,7.4,9.5,13.1v15.4h-8.8V22.9z"/>
	<path class="st0" d="M123.5,5.2c0-2.8,2.1-4.8,4.9-4.8c2.8,0,5,2,5,4.8c0,2.7-2.2,4.8-5,4.8C125.6,10,123.5,8,123.5,5.2z
		 M132.9,39.4h-8.8V11.7h8.8V39.4z"/>
	<path class="st0" d="M146.9,27.9c0.2,2.5,2.6,4.6,5.9,4.6c3.3,0,5.3-2.2,5.8-3l5.8,4.5c-0.8,1.6-4.6,6.1-11.8,6.1
		c-9.1,0-14.7-6.3-14.7-14.5c0-8.1,5.5-14.6,13.6-14.6c8.8,0,13.6,5.7,13.6,15.1c0,0.5,0,1.1-0.1,1.7H146.9z M147.2,22.3h9
		c-0.1-2.2-1.7-4.1-4.5-4.1C148.8,18.1,147.4,20.3,147.2,22.3z"/>
	<path class="st0" d="M186,20c-0.4-0.1-0.8-0.1-1.4-0.1c-4.3,0-5.7,3.1-5.7,7.3v12.3H170V11.7h8.6v3.7c1.3-2.7,3.9-4.4,7.3-4.4V20z"
		/>
	<path class="st0" d="M226,10.3l-7.5,3.4c-0.7-1.6-1.8-3.6-4.6-3.6c-1.7,0-2.9,1.1-2.9,2.5c0,5,15.4,4.5,15.4,15.8
		c0,6.8-4.9,11.7-12.9,11.7c-8.3,0-11.6-6-12.6-8.8l7.6-3.8c1,2.2,3,4.1,5.5,4.1c2.2,0,3.3-1,3.3-2.6c0-4.9-15.3-4.5-15.3-16.3
		c0-6.7,4.8-11,12.2-11C222,1.8,225.1,7.5,226,10.3z"/>
	<path class="st0" d="M241.4,11.7h4.7v7.1h-4.7V29c0,2.4,1.6,3,3.4,3c0.5,0,0.9,0,1.5-0.1v7.6c0,0-1.2,0.3-3.4,0.3
		c-6.6,0-10.4-3-10.4-11.3v-9.8h-2.7v-7.1h2.7V5.8h8.8V11.7z"/>
	<path class="st0" d="M260.3,28.2c0,2.6,1.5,4,3.6,4c2.4,0,3.8-1.7,3.8-4V11.7h8.8v27.7H268v-2.9c-1.1,1.6-3.5,3.5-7,3.5
		c-8.7,0-9.5-7.4-9.5-13.1V11.7h8.8V28.2z"/>
	<path class="st0" d="M302.5,37.3c-0.8,0.9-3.4,2.9-7.5,2.9c-8,0-13.6-6-13.6-14.5c0-8.6,5.1-14.6,13.1-14.6c4.2,0,6.8,2.1,7.4,2.8
		V1.2h8.8v38.2h-8.2V37.3z M296.2,18.8c-3.6,0-6,2.8-6,6.9c0,4.1,2.4,6.8,6,6.8c3.8,0,6-3.1,6-6.8C302.2,21.3,299.7,18.8,296.2,18.8
		z"/>
	<path class="st0" d="M316.6,5.2c0-2.8,2.1-4.8,4.9-4.8s5,2,5,4.8c0,2.7-2.2,4.8-5,4.8S316.6,8,316.6,5.2z M326,39.4h-8.8V11.7h8.8
		V39.4z"/>
	<path class="st0" d="M346,11c8.9,0,15.2,6.1,15.2,14.5c0,8.3-6.4,14.6-15.2,14.6c-8.8,0-15.1-6.1-15.1-14.5
		C330.9,17.2,337.4,11,346,11z M346,32.4c3.6,0,6.4-2.9,6.4-6.8c0-4.1-2.8-6.8-6.4-6.8c-3.6,0-6.2,2.8-6.2,6.9
		C339.8,29.7,342.4,32.4,346,32.4z"/>
	<path class="st0" d="M364.4,35.4l5-4.8c1.5,1.3,3.3,2.4,6.1,2.4c1.7,0,2.5-0.5,2.5-1.5c0-3.2-12.7-1.8-12.7-11.9
		c0-5.3,4.7-8.6,10.7-8.6c5.3,0,8.3,2.5,9.9,4.8l-5.7,4.5c-0.8-0.8-2.4-2.2-4.6-2.2c-1.3,0-2,0.5-2,1.4c0,3.5,12.8,1.5,12.8,11.5
		c0,5.7-5,9.1-11.3,9.1C369.8,40.1,366,37.6,364.4,35.4z"/>
	<path class="st0" d="M390.1,34.9c0-2.9,2.3-5.3,5.2-5.3s5.3,2.4,5.3,5.3c0,2.9-2.4,5.2-5.3,5.2S390.1,37.7,390.1,34.9z"/>
</g>
</svg>
