<svg id="Calque_1" data-name="Calque 1" xmlns="http://www.w3.org/2000/svg" viewBox="0 0 351.58 39.68"><defs><style>.cls-1{fill:#1d1d1b;}</style></defs><title>LogoGARNIER-EVENT</title><path class="cls-1" d="M36.06,33.9c-3.91,3-8.4,5.81-16.91,5.81C8.69,39.71,0,32.31,0,20.42,0,9.85,7.85,1.35,19.37,1.35c8.72,0,13.16,4.07,15.06,6.45l-5.71,5.92a11.72,11.72,0,0,0-8.93-4c-6.6,0-10.41,4.6-10.41,10.57,0,6.87,4.54,11.1,10.41,11.1,4.65,0,7.29-1.69,7.87-2.27V25.81H21.27V18.25h14.8V33.9Z" transform="translate(-0.03 -0.02)"/><path class="cls-1" d="M51.49,21.21a14.14,14.14,0,0,1,5.34,1v-1c0-1.69-1.37-3-4.23-3a16,16,0,0,0-7,1.74L42.35,14a20.2,20.2,0,0,1,11.31-3.44c9.56,0,12,4.91,12,11.26V39H57.78L57.3,37.49A8.41,8.41,0,0,1,51,39.71c-5.44,0-10.3-3.28-10.3-9.3C40.71,24.86,44.94,21.21,51.49,21.21Zm1.8,11.73c2.11,0,3.7-1,3.7-2.85s-1.64-3-3.75-3-3.7,1.16-3.7,3S51.23,32.94,53.29,32.94Z" transform="translate(-0.03 -0.02)"/><path class="cls-1" d="M87.69,19.58a9.24,9.24,0,0,0-1.43-.11c-4.28,0-5.71,3.12-5.71,7.29V39H71.73V11.28h8.61V15a7.81,7.81,0,0,1,7.35-4.39v9Z" transform="translate(-0.03 -0.02)"/><path class="cls-1" d="M108.82,22.48c0-2.59-1.53-4-3.65-4a3.67,3.67,0,0,0-3.8,4V39H92.55V11.28h8.61v2.85a8.31,8.31,0,0,1,7-3.54c8.67,0,9.51,7.4,9.51,13.05V39h-8.82V22.48Z" transform="translate(-0.03 -0.02)"/><path class="cls-1" d="M123.24,4.83a4.94,4.94,0,0,1,9.88,0A4.94,4.94,0,0,1,123.24,4.83ZM132.65,39h-8.82V11.28h8.82V39Z" transform="translate(-0.03 -0.02)"/><path class="cls-1" d="M146.7,27.45c0.21,2.48,2.59,4.6,5.87,4.6a7.16,7.16,0,0,0,5.81-3l5.81,4.49c-0.79,1.64-4.6,6.13-11.78,6.13-9.14,0-14.74-6.29-14.74-14.48s5.5-14.64,13.63-14.64c8.82,0,13.63,5.65,13.63,15.11,0,0.53,0,1.11-.05,1.74H146.7Zm0.26-5.6h9a4.25,4.25,0,0,0-4.49-4.12A4.39,4.39,0,0,0,147,21.85Z" transform="translate(-0.03 -0.02)"/><path class="cls-1" d="M185.75,19.58a9.22,9.22,0,0,0-1.43-.11c-4.28,0-5.71,3.12-5.71,7.29V39h-8.83V11.28h8.61V15a7.81,7.81,0,0,1,7.34-4.39v9Z" transform="translate(-0.03 -0.02)"/><path class="cls-1" d="M203,39V2h19.71v8.08H212.06V16.3h9.09v8h-9.09v6.6h11.1V39H203Z" transform="translate(-0.03 -0.02)"/><path class="cls-1" d="M241.55,29.67l5.23-18.39H256L246.62,39H236.37l-9.51-27.74h9.46Z" transform="translate(-0.03 -0.02)"/><path class="cls-1" d="M267.7,27.45c0.21,2.48,2.59,4.6,5.87,4.6a7.15,7.15,0,0,0,5.81-3l5.81,4.49c-0.79,1.64-4.6,6.13-11.78,6.13-9.14,0-14.74-6.29-14.74-14.48s5.5-14.64,13.63-14.64c8.82,0,13.63,5.65,13.63,15.11,0,0.53,0,1.11-.05,1.74H267.7Zm0.26-5.6h9a4.25,4.25,0,0,0-4.49-4.12A4.39,4.39,0,0,0,268,21.85Z" transform="translate(-0.03 -0.02)"/><path class="cls-1" d="M307.07,22.48c0-2.59-1.53-4-3.65-4a3.67,3.67,0,0,0-3.8,4V39h-8.83V11.28h8.61v2.85a8.31,8.31,0,0,1,7-3.54c8.67,0,9.51,7.4,9.51,13.05V39h-8.82V22.48Z" transform="translate(-0.03 -0.02)"/><path class="cls-1" d="M331.64,11.28h4.7v7.13h-4.7v10.2c0,2.43,1.64,3,3.43,3,0.48,0,.9,0,1.48-0.05v7.56a14.19,14.19,0,0,1-3.38.32c-6.55,0-10.36-3-10.36-11.25V18.41h-2.7V11.28h2.7V5.41h8.82v5.87Z" transform="translate(-0.03 -0.02)"/><path class="cls-1" d="M341.09,34.48a5.26,5.26,0,1,1,5.23,5.23A5.25,5.25,0,0,1,341.09,34.48Z" transform="translate(-0.03 -0.02)"/></svg>