<?xml version="1.0" encoding="utf-8"?>
<!-- Generator: Adobe Illustrator 19.0.0, SVG Export Plug-In . SVG Version: 6.00 Build 0)  -->
<svg version="1.1" id="Calque_1" xmlns="http://www.w3.org/2000/svg" xmlns:xlink="http://www.w3.org/1999/xlink" x="0px" y="0px"
	 viewBox="0 0 351.7 39.8" style="enable-background:new 0 0 351.7 39.8;" xml:space="preserve">
<style type="text/css">
	.st0{fill:#FFFFFF;}
</style>
<g>
	<path class="st0" d="M36.1,33.9c-3.9,3-8.4,5.8-16.9,5.8C8.7,39.7,0,32.3,0,20.4C0,9.9,7.8,1.3,19.4,1.3c8.7,0,13.2,4.1,15.1,6.4
		l-5.7,5.9c-0.8-1.1-4-4-8.9-4c-6.6,0-10.4,4.6-10.4,10.6c0,6.9,4.5,11.1,10.4,11.1c4.6,0,7.3-1.7,7.9-2.3v-3.3h-6.4v-7.6h14.8V33.9
		z"/>
	<path class="st0" d="M51.5,21.2c2.4,0,4.3,0.6,5.3,1v-1c0-1.7-1.4-3-4.2-3c-2.4,0-4.8,0.7-7,1.7L42.3,14c3-2,6.7-3.4,11.3-3.4
		c9.6,0,12,4.9,12,11.3V39h-7.9l-0.5-1.5c-1.4,1.4-3.4,2.2-6.3,2.2c-5.4,0-10.3-3.3-10.3-9.3C40.7,24.9,44.9,21.2,51.5,21.2z
		 M53.3,32.9c2.1,0,3.7-1,3.7-2.9c0-1.9-1.6-3-3.8-3s-3.7,1.2-3.7,3C49.5,31.9,51.2,32.9,53.3,32.9z"/>
	<path class="st0" d="M87.7,19.6c-0.4-0.1-0.8-0.1-1.4-0.1c-4.3,0-5.7,3.1-5.7,7.3V39h-8.8V11.3h8.6V15c1.3-2.7,3.9-4.4,7.3-4.4
		V19.6z"/>
	<path class="st0" d="M108.8,22.5c0-2.6-1.5-4-3.6-4c-2.4,0-3.8,1.7-3.8,4V39h-8.8V11.3h8.6v2.9c1.1-1.6,3.5-3.5,7-3.5
		c8.7,0,9.5,7.4,9.5,13.1V39h-8.8V22.5z"/>
	<path class="st0" d="M123.2,4.8c0-2.8,2.1-4.8,4.9-4.8c2.8,0,5,2,5,4.8c0,2.7-2.2,4.8-5,4.8C125.4,9.6,123.2,7.6,123.2,4.8z
		 M132.6,39h-8.8V11.3h8.8V39z"/>
	<path class="st0" d="M146.7,27.4c0.2,2.5,2.6,4.6,5.9,4.6c3.3,0,5.3-2.2,5.8-3l5.8,4.5c-0.8,1.6-4.6,6.1-11.8,6.1
		c-9.1,0-14.7-6.3-14.7-14.5c0-8.1,5.5-14.6,13.6-14.6c8.8,0,13.6,5.7,13.6,15.1c0,0.5,0,1.1-0.1,1.7H146.7z M147,21.8h9
		c-0.1-2.2-1.7-4.1-4.5-4.1C148.6,17.7,147.2,19.9,147,21.8z"/>
	<path class="st0" d="M185.8,19.6c-0.4-0.1-0.8-0.1-1.4-0.1c-4.3,0-5.7,3.1-5.7,7.3V39h-8.8V11.3h8.6V15c1.3-2.7,3.9-4.4,7.3-4.4
		V19.6z"/>
	<path class="st0" d="M203,39V2h19.7v8.1h-10.7v6.2h9.1v8h-9.1v6.6h11.1V39H203z"/>
	<path class="st0" d="M241.5,29.7l5.2-18.4h9.2L246.6,39h-10.3l-9.5-27.7h9.5L241.5,29.7z"/>
	<path class="st0" d="M267.7,27.4c0.2,2.5,2.6,4.6,5.9,4.6c3.3,0,5.3-2.2,5.8-3l5.8,4.5c-0.8,1.6-4.6,6.1-11.8,6.1
		c-9.1,0-14.7-6.3-14.7-14.5c0-8.1,5.5-14.6,13.6-14.6c8.8,0,13.6,5.7,13.6,15.1c0,0.5,0,1.1-0.1,1.7H267.7z M268,21.8h9
		c-0.1-2.2-1.7-4.1-4.5-4.1C269.6,17.7,268.2,19.9,268,21.8z"/>
	<path class="st0" d="M307.1,22.5c0-2.6-1.5-4-3.6-4c-2.4,0-3.8,1.7-3.8,4V39h-8.8V11.3h8.6v2.9c1.1-1.6,3.5-3.5,7-3.5
		c8.7,0,9.5,7.4,9.5,13.1V39h-8.8V22.5z"/>
	<path class="st0" d="M331.6,11.3h4.7v7.1h-4.7v10.2c0,2.4,1.6,3,3.4,3c0.5,0,0.9,0,1.5-0.1v7.6c0,0-1.2,0.3-3.4,0.3
		c-6.6,0-10.4-3-10.4-11.3v-9.8h-2.7v-7.1h2.7V5.4h8.8V11.3z"/>
	<path class="st0" d="M341.1,34.5c0-2.9,2.3-5.3,5.2-5.3s5.3,2.4,5.3,5.3c0,2.9-2.4,5.2-5.3,5.2S341.1,37.3,341.1,34.5z"/>
</g>
</svg>
